<?xml version="1.0" standalone="no"?><!DOCTYPE svg PUBLIC "-//W3C//DTD SVG 1.1//EN" "http://www.w3.org/Graphics/SVG/1.1/DTD/svg11.dtd"><svg t="1744253223847" class="icon" viewBox="0 0 1024 1024" version="1.1" xmlns="http://www.w3.org/2000/svg" p-id="4481" xmlns:xlink="http://www.w3.org/1999/xlink" width="200" height="200"><path d="M635.628308 100.194462l302.395077 250.210461a117.838769 117.838769 0 0 1 42.692923 85.070769v0.787693l0.039384 0.551384-0.039384-0.039384v384.708923a189.046154 189.046154 0 0 1-180.578462 188.84923l-8.428308 0.196924h-70.892307a118.153846 118.153846 0 0 1-117.956923-111.222154l-0.196923-6.931693v-36.115692h-0.472616v-95.901538a31.507692 31.507692 0 0 0-27.569231-31.271385l-3.938461-0.236308H448.984615a31.507692 31.507692 0 0 0-31.271384 27.569231l-0.236308 3.938462V892.376615a118.153846 118.153846 0 0 1-118.153846 118.153847h-70.892308a189.046154 189.046154 0 0 1-189.046154-189.046154V436.775385H39.384615l0.039385-0.512v-0.787693h0.039385l0.590769-7.561846a117.602462 117.602462 0 0 1 42.062769-77.508923l302.434462-250.210461a196.923077 196.923077 0 0 1 251.076923 0z m-150.843077 30.089846l-4.568616 3.150769-341.93723 264.940308-3.859693 3.308307-3.544615 3.702154a51.751385 51.751385 0 0 0-12.681846 31.389539v384.708923a110.276923 110.276923 0 0 0 103.581538 110.08l6.695385 0.196923h39.384615a70.892308 70.892308 0 0 0 70.695385-65.102769l0.236308-5.789539v-132.174769a78.769231 78.769231 0 0 1 78.76923-78.769231h184.713846a78.769231 78.769231 0 0 1 78.769231 78.769231l-0.039384 51.790769h0.393846v80.344615l0.275692 5.828924a70.892308 70.892308 0 0 0 64.512 64.827076l6.144 0.275693h39.384615l6.695385-0.196923a110.276923 110.276923 0 0 0 103.384615-103.384616l0.196924-6.695384-0.039385-385.811693-0.433231-4.332307a51.790769 51.790769 0 0 0-15.241846-29.223385l-4.292923-3.741538-341.937231-264.940308a48.836923 48.836923 0 0 0-55.296-3.150769z" fill="#dc5832" p-id="4482"></path></svg>